<?xml version="1.0" standalone="no"?>
<!DOCTYPE svg PUBLIC "-//W3C//DTD SVG 20010904//EN"
 "http://www.w3.org/TR/2001/REC-SVG-20010904/DTD/svg10.dtd">
<svg version="1.0" xmlns="http://www.w3.org/2000/svg"
 width="219.000000pt" height="219.000000pt" viewBox="0 0 219.000000 219.000000"
 preserveAspectRatio="xMidYMid meet">
<metadata>
Created by potrace 1.14, written by Peter Selinger 2001-2017
</metadata>
<g transform="translate(0.000000,219.000000) scale(0.100000,-0.100000)"
fill="#000000" stroke="none">
<path d="M389 2172 c-20 -12 -26 -23 -26 -51 0 -20 1 -29 4 -20 5 21 45 42 69
37 11 -2 20 -13 22 -26 2 -12 7 -22 12 -22 4 0 7 -11 6 -25 0 -14 -5 -25 -9
-25 -5 0 -6 -4 -2 -9 3 -5 1 -12 -5 -16 -5 -3 -10 -2 -10 3 0 12 -38 4 -65
-15 -12 -8 -20 -25 -21 -48 -1 -33 0 -34 16 -15 9 11 20 17 24 13 3 -3 6 -1 6
5 0 7 5 12 10 12 6 0 10 -9 10 -19 0 -14 5 -18 21 -14 15 4 22 0 26 -16 4 -14
11 -20 20 -17 8 3 20 6 26 6 9 0 9 2 0 8 -9 6 -10 17 -2 45 10 37 19 42 67 38
14 -1 22 4 22 14 0 12 -8 14 -42 8 -24 -3 -48 -13 -55 -22 -13 -18 -28 -9 -21
11 3 7 7 18 9 23 1 6 9 16 16 23 15 16 17 32 3 32 -5 0 -10 7 -10 15 0 8 5 15
11 15 5 0 8 4 5 9 -4 5 3 7 15 4 11 -3 18 -11 15 -19 -4 -10 7 -12 53 -8 45 4
61 2 71 -11 11 -13 15 -13 21 -3 12 18 11 30 -1 23 -5 -3 -10 -2 -10 3 0 4
-24 5 -52 1 -60 -7 -68 -5 -68 19 0 19 -33 52 -51 52 -6 0 -9 -7 -5 -15 4 -11
-1 -15 -19 -15 -16 0 -25 6 -25 15 0 8 -9 15 -20 15 -11 0 -20 -6 -20 -12 0
-9 -3 -9 -8 -2 -5 7 -15 6 -33 -4z"/>
<path d="M938 2183 c7 -3 16 -2 19 1 4 3 -2 6 -13 5 -11 0 -14 -3 -6 -6z"/>
<path d="M1145 2181 c-3 -6 3 -14 13 -20 14 -7 21 -5 30 10 11 17 9 19 -12 19
-14 0 -27 -4 -31 -9z"/>
<path d="M1356 2179 c3 -5 19 -9 36 -9 17 0 28 3 24 7 -11 11 -67 12 -60 2z"/>
<path d="M1524 2156 c-7 -42 4 -67 19 -41 9 18 10 18 23 0 8 -11 19 -15 30
-11 14 5 14 9 3 24 -11 14 -11 15 1 5 20 -18 30 -16 30 6 0 23 -41 51 -74 51
-21 0 -26 -6 -32 -34z"/>
<path d="M1742 2178 c3 -7 21 -22 41 -35 l37 -23 0 25 c0 18 -5 25 -20 25 -11
0 -20 4 -20 8 0 4 -9 8 -21 9 -11 1 -19 -3 -17 -9z"/>
<path d="M845 2170 c2 -3 -5 -14 -16 -23 -10 -9 -19 -27 -19 -39 -1 -26 -32
-67 -52 -69 -7 -1 9 -5 36 -10 27 -4 52 -13 56 -19 5 -9 14 -7 29 6 l22 19
-38 5 c-26 3 -39 11 -41 23 -5 26 7 69 17 62 5 -2 12 2 15 10 3 8 11 14 17 13
6 -2 13 2 16 8 2 6 -7 14 -21 16 -14 3 -24 2 -21 -2z"/>
<path d="M700 2140 c0 -5 5 -10 10 -10 6 0 10 5 10 10 0 6 -4 10 -10 10 -5 0
-10 -4 -10 -10z"/>
<path d="M1060 2116 c0 -2 7 -7 16 -10 8 -3 12 -2 9 4 -6 10 -25 14 -25 6z"/>
<path d="M740 2085 c-11 -12 -20 -29 -20 -37 0 -21 -46 -58 -71 -58 -11 0 -19
-6 -19 -13 0 -23 12 -27 29 -10 15 16 16 15 19 -5 5 -33 27 -26 28 8 1 17 9
36 18 43 9 7 15 23 14 37 -2 17 3 25 16 28 11 2 26 10 33 17 11 12 10 14 -7
12 -11 -1 -29 -11 -40 -22z"/>
<path d="M1273 2085 c-9 -24 1 -27 20 -5 14 17 15 20 2 20 -9 0 -18 -7 -22
-15z"/>
<path d="M556 2081 c-3 -5 0 -11 7 -14 8 -3 14 1 14 9 0 16 -13 19 -21 5z"/>
<path d="M1448 2060 c-4 -26 -1 -31 21 -36 14 -3 36 -9 48 -14 23 -9 33 -4 33
17 0 8 -5 11 -10 8 -6 -4 -24 7 -41 24 -38 39 -46 39 -51 1z"/>
<path d="M1550 2081 c0 -6 4 -13 10 -16 6 -3 7 1 4 9 -7 18 -14 21 -14 7z"/>
<path d="M1580 2072 c0 -14 11 -27 31 -37 17 -9 35 -29 41 -46 7 -21 16 -29
34 -29 25 0 30 -17 15 -54 -7 -18 -8 -18 -29 4 -12 13 -24 21 -27 18 -6 -6 80
-100 89 -99 4 1 20 -6 37 -14 20 -11 29 -21 25 -32 -4 -9 -1 -13 6 -11 25 9
19 37 -11 52 -31 17 -61 52 -61 73 0 6 9 15 20 18 22 7 29 55 8 55 -6 0 -9 2
-7 5 8 8 49 -7 43 -16 -3 -5 2 -6 10 -3 12 4 16 20 16 54 0 52 -7 64 -30 49
-12 -7 -11 -9 5 -9 18 0 18 -1 -3 -16 -15 -10 -32 -14 -50 -9 -20 5 -23 8 -11
15 12 8 11 12 -4 27 -14 14 -17 14 -12 3 4 -11 -5 -20 -30 -29 -38 -13 -54 -7
-92 38 -11 13 -13 12 -13 -7z m154 -68 c3 -8 2 -12 -4 -9 -6 3 -10 10 -10 16
0 14 7 11 14 -7z"/>
<path d="M1033 2063 c-9 -27 -34 -53 -44 -47 -5 3 -9 -4 -9 -15 0 -22 14 -28
25 -11 3 6 14 10 25 10 10 0 20 7 24 15 3 8 1 15 -5 15 -5 0 -7 11 -3 25 7 28
-3 34 -13 8z"/>
<path d="M1155 2070 c3 -5 8 -10 11 -10 2 0 4 5 4 10 0 6 -5 10 -11 10 -5 0
-7 -4 -4 -10z"/>
<path d="M975 2050 c4 -6 11 -8 16 -5 14 9 11 15 -7 15 -8 0 -12 -5 -9 -10z"/>
<path d="M361 1878 c1 -33 14 -64 22 -51 9 14 -3 73 -14 73 -5 0 -9 -10 -8
-22z"/>
<path d="M576 1859 c-15 -12 -33 -35 -42 -53 -8 -17 -12 -23 -9 -13 5 20 -20
24 -28 5 -4 -10 -6 -10 -6 0 -2 30 -16 8 -18 -28 -2 -30 1 -40 12 -40 23 0 18
-14 -12 -32 -20 -13 -23 -18 -11 -18 17 0 58 37 58 52 0 20 20 -5 29 -35 6
-24 8 -13 6 48 -2 60 1 84 13 98 18 21 36 23 29 2 -4 -8 -2 -17 2 -20 5 -2 11
7 14 20 6 35 -6 39 -37 14z"/>
<path d="M860 1873 c0 -4 5 -15 10 -23 8 -13 10 -13 10 2 0 9 -4 20 -10 23 -5
3 -10 3 -10 -2z"/>
<path d="M1250 1859 c0 -5 5 -7 10 -4 6 3 10 8 10 11 0 2 -4 4 -10 4 -5 0 -10
-5 -10 -11z"/>
<path d="M1380 1851 c0 -5 9 -11 21 -14 16 -4 18 -3 8 9 -13 16 -29 19 -29 5z"/>
<path d="M1430 1821 c0 -6 4 -13 10 -16 6 -3 7 1 4 9 -7 18 -14 21 -14 7z"/>
<path d="M1710 1730 c0 -5 5 -10 10 -10 6 0 10 5 10 10 0 6 -4 10 -10 10 -5 0
-10 -4 -10 -10z"/>
<path d="M1740 1720 c0 -5 5 -10 10 -10 6 0 10 5 10 10 0 6 -4 10 -10 10 -5 0
-10 -4 -10 -10z"/>
<path d="M1710 1676 c0 -9 5 -16 10 -16 6 0 10 4 10 9 0 6 -4 13 -10 16 -5 3
-10 -1 -10 -9z"/>
<path d="M1730 1638 c0 -6 -9 -21 -20 -33 -13 -14 -16 -25 -10 -35 7 -10 10
-11 10 -2 0 6 7 12 15 12 9 0 12 6 8 17 -5 12 -2 15 13 11 14 -4 20 0 20 13 0
10 -4 15 -8 13 -4 -3 -8 0 -8 5 0 6 -4 11 -10 11 -5 0 -10 -5 -10 -12z"/>
<path d="M570 1630 c0 -5 7 -7 15 -4 8 4 15 8 15 10 0 2 -7 4 -15 4 -8 0 -15
-4 -15 -10z"/>
<path d="M1727 1553 c4 -11 3 -14 -5 -9 -8 5 -10 2 -6 -8 9 -25 24 -19 24 9 0
14 -4 25 -10 25 -5 0 -6 -7 -3 -17z"/>
<path d="M907 1543 c-15 -2 -31 -12 -35 -21 -9 -17 -15 -259 -11 -397 5 -168
4 -175 -21 -160 -9 6 -9 10 1 16 11 7 11 9 -1 9 -10 0 -16 11 -17 30 -1 17 2
28 7 25 5 -3 7 1 4 9 -3 8 -12 12 -19 10 -10 -4 -12 1 -8 18 4 18 3 20 -6 8
-5 -8 -7 -26 -4 -39 4 -16 2 -22 -5 -17 -8 4 -10 2 -6 -7 3 -8 0 -18 -5 -22
-6 -3 -8 -11 -5 -17 4 -7 2 -8 -5 -4 -6 4 -8 13 -4 19 4 7 -1 6 -11 -2 -9 -8
-15 -20 -12 -28 3 -8 1 -11 -4 -8 -10 6 -19 -9 -24 -37 -1 -7 -5 -18 -8 -24
-4 -6 -12 -24 -18 -40 -9 -25 -8 -27 3 -12 8 10 17 15 20 11 4 -3 8 5 8 18 1
17 3 19 6 7 5 -22 22 -23 29 -3 3 8 14 17 25 20 11 4 17 11 14 16 -4 5 -1 9 6
9 8 0 10 -19 7 -67 -3 -39 -2 -59 3 -48 4 11 8 36 9 55 1 32 24 80 34 69 4 -4
10 -148 7 -182 0 -10 -5 -15 -11 -12 -15 9 -12 -8 6 -33 30 -44 61 -293 33
-277 -6 4 -5 -3 3 -15 10 -18 10 -24 1 -27 -16 -6 -17 -40 -1 -45 9 -3 9 -6 0
-12 -13 -8 -21 8 -43 81 -7 24 -16 43 -22 43 -5 0 -6 7 -3 15 4 11 -3 19 -22
26 -26 10 -27 11 -7 25 19 14 19 16 3 25 -10 6 -18 17 -18 24 0 8 -5 15 -11
15 -5 0 -8 4 -5 9 4 5 1 22 -5 38 -13 30 -12 65 1 73 5 3 0 16 -11 28 -17 22
-22 23 -54 12 -19 -6 -37 -16 -41 -21 -3 -5 -10 -7 -15 -4 -5 4 -9 -2 -9 -12
-1 -51 -22 -174 -37 -215 -15 -43 -19 -46 -45 -41 -32 6 -36 -7 -14 -48 12
-23 11 -29 -5 -50 -13 -17 -14 -26 -6 -31 8 -5 6 -8 -6 -8 -10 0 -15 -4 -12
-10 3 -5 -2 -10 -11 -10 -10 0 -14 3 -11 7 4 3 2 12 -3 18 -21 25 -60 107 -60
126 0 22 -17 24 -42 5 -16 -12 -18 -35 -18 -235 l0 -221 440 0 c242 0 440 4
440 8 -1 20 -19 33 -41 27 -13 -3 -91 -7 -174 -9 -128 -3 -152 -1 -163 13 -16
21 -37 58 -27 49 5 -5 13 2 19 14 20 39 145 115 201 123 90 12 140 11 167 -2
23 -11 27 -20 30 -65 3 -51 5 -54 46 -76 23 -13 49 -37 57 -53 l16 -29 224 0
225 0 0 239 c0 220 -1 240 -18 245 -26 9 -47 47 -31 56 10 7 9 14 -5 34 -18
29 -26 32 -44 14 -9 -9 -13 -7 -18 5 -3 10 -17 17 -30 17 -22 0 -24 4 -21 35
3 19 1 35 -2 35 -4 0 -13 16 -20 35 -7 19 -19 35 -27 35 -8 0 -14 5 -14 10 0
6 -9 10 -19 10 -14 0 -21 9 -26 31 -4 18 -15 33 -25 36 -10 3 -20 18 -24 35
-3 16 -15 43 -27 59 -12 17 -21 46 -22 65 -1 28 -4 34 -18 31 -10 -3 -20 1
-23 9 -3 7 -12 11 -21 8 -9 -4 -15 0 -16 7 -1 8 -5 1 -9 -16 -4 -16 -8 85 -9
226 -1 223 -3 258 -17 270 -12 10 -64 14 -208 15 -105 1 -203 -1 -219 -3z
m133 -43 c-6 -11 -15 -20 -20 -20 -6 0 -2 9 7 20 10 11 19 20 21 20 1 0 -2 -9
-8 -20z m77 -32 c-3 -8 -6 -5 -6 6 -1 11 2 17 5 13 3 -3 4 -12 1 -19z m60 -8
c1 -12 -4 -20 -13 -20 -12 0 -12 4 -4 20 6 11 12 20 13 20 2 0 3 -9 4 -20z
m-236 -3 c-1 -12 -15 -9 -19 4 -3 6 1 10 8 8 6 -3 11 -8 11 -12z m354 -9 c-19
-11 -30 -5 -21 11 4 6 14 7 22 4 15 -5 14 -7 -1 -15z m-65 2 c0 -5 -5 -10 -11
-10 -5 0 -7 5 -4 10 3 6 8 10 11 10 2 0 4 -4 4 -10z m-230 -10 c0 -5 -2 -10
-4 -10 -3 0 -8 5 -11 10 -3 6 -1 10 4 10 6 0 11 -4 11 -10z m-40 -16 c0 -8
-19 -13 -24 -6 -3 5 1 9 9 9 8 0 15 -2 15 -3z m97 -60 c-3 -3 -12 -4 -19 -1
-8 3 -5 6 6 6 11 1 17 -2 13 -5z m-37 -37 c0 -5 -4 -5 -10 -2 -5 3 -10 14 -10
23 0 15 2 15 10 2 5 -8 10 -19 10 -23z m75 -5 c-3 -3 -11 0 -18 7 -9 10 -8 11
6 5 10 -3 15 -9 12 -12z m45 8 c0 -5 -8 -10 -17 -10 -15 0 -16 2 -3 10 19 12
20 12 20 0z m125 -10 c3 -5 1 -10 -4 -10 -6 0 -11 5 -11 10 0 6 2 10 4 10 3 0
8 -4 11 -10z m-48 -22 c-3 -8 -6 -5 -6 6 -1 11 2 17 5 13 3 -3 4 -12 1 -19z
m-220 -4 c-3 -3 -12 -4 -19 -1 -8 3 -5 6 6 6 11 1 17 -2 13 -5z m150 -36 c-3
-8 -6 -5 -6 6 -1 11 2 17 5 13 3 -3 4 -12 1 -19z m153 2 c-6 -11 -13 -20 -16
-20 -2 0 0 9 6 20 6 11 13 20 16 20 2 0 0 -9 -6 -20z m-280 -20 c0 -5 -2 -10
-4 -10 -3 0 -8 5 -11 10 -3 6 -1 10 4 10 6 0 11 -4 11 -10z m70 0 c0 -5 -5
-10 -11 -10 -5 0 -7 5 -4 10 3 6 8 10 11 10 2 0 4 -4 4 -10z m190 -44 c0 -3
-4 -8 -10 -11 -5 -3 -10 -1 -10 4 0 6 5 11 10 11 6 0 10 -2 10 -4z m-350 -62
c0 -2 -9 -4 -20 -4 -11 0 -20 4 -20 9 0 5 9 7 20 4 11 -3 20 -7 20 -9z m410
-89 c0 -26 -14 -33 -25 -15 -9 14 1 40 15 40 5 0 10 -11 10 -25z m-319 -38
c-10 -9 -11 -8 -5 6 3 10 9 15 12 12 3 -3 0 -11 -7 -18z m66 17 c-3 -3 -12 -4
-19 -1 -8 3 -5 6 6 6 11 1 17 -2 13 -5z m88 -12 c-3 -3 -11 0 -18 7 -9 10 -8
11 6 5 10 -3 15 -9 12 -12z m30 -2 c3 -5 1 -10 -4 -10 -6 0 -11 5 -11 10 0 6
2 10 4 10 3 0 8 -4 11 -10z m-218 -16 c-3 -3 -12 -4 -19 -1 -8 3 -5 6 6 6 11
1 17 -2 13 -5z m305 -53 c-4 -10 -1 -12 8 -6 10 6 12 4 5 -11 -4 -10 -8 -32
-9 -49 -2 -45 -12 -53 -53 -49 -119 11 -183 13 -188 4 -3 -6 1 -10 10 -10 9 0
13 -5 10 -10 -7 -12 -52 18 -59 40 -3 8 -4 5 -3 -7 1 -12 -2 -23 -7 -25 -5 -2
-10 18 -11 45 -1 37 2 47 14 48 10 0 11 3 4 5 -7 3 -9 13 -6 22 5 14 3 15 -8
5 -7 -7 -18 -13 -24 -13 -19 1 29 23 55 26 14 1 36 5 50 7 14 2 38 5 53 6 19
1 26 5 21 13 -4 7 -3 8 5 4 6 -4 9 -12 5 -17 -3 -6 0 -9 7 -8 8 2 25 -3 38
-10 19 -11 22 -11 15 1 -4 7 2 5 14 -5 11 -11 26 -16 31 -12 16 9 13 35 -4 35
-16 0 -20 12 -8 24 11 10 42 -36 35 -53z m43 -17 c0 -29 -3 -54 -7 -54 -3 0
-4 -10 -1 -22 4 -18 2 -20 -5 -8 -6 8 -9 27 -6 42 2 15 6 42 9 58 3 19 1 29
-5 25 -6 -3 -7 1 -4 10 11 27 18 6 19 -51z m-505 26 c0 -5 -5 -10 -11 -10 -5
0 -7 5 -4 10 3 6 8 10 11 10 2 0 4 -4 4 -10z m557 4 c-3 -3 -12 -4 -19 -1 -8
3 -5 6 6 6 11 1 17 -2 13 -5z m-405 -56 c2 -13 1 -36 -3 -53 -7 -31 -9 -25
-12 43 -2 36 9 44 15 10z m458 -27 c0 -5 3 -16 6 -25 4 -10 1 -16 -9 -16 -20
0 -29 14 -21 34 7 17 24 22 24 7z m-276 -66 c-4 -8 -8 -15 -10 -15 -2 0 -4 7
-4 15 0 8 4 15 10 15 5 0 7 -7 4 -15z m276 -16 c10 -18 9 -18 -20 -1 -34 20
-40 33 -10 25 11 -3 25 -14 30 -24z m-313 -4 c-11 -23 -27 -34 -27 -18 0 6 30
43 36 43 1 0 -3 -11 -9 -25z m155 -5 c-2 -16 -6 -30 -8 -30 -2 0 -4 14 -4 30
0 17 4 30 8 30 5 0 7 -13 4 -30z m-325 4 c-3 -3 -12 -4 -19 -1 -8 3 -5 6 6 6
11 1 17 -2 13 -5z m298 -5 c11 -17 -1 -21 -15 -4 -8 9 -8 15 -2 15 6 0 14 -5
17 -11z m-142 -36 c-7 -2 -21 -2 -30 0 -10 3 -4 5 12 5 17 0 24 -2 18 -5z
m107 -23 c0 -5 -5 -10 -11 -10 -5 0 -7 5 -4 10 3 6 8 10 11 10 2 0 4 -4 4 -10z
m-183 -6 c-3 -3 -12 -4 -19 -1 -8 3 -5 6 6 6 11 1 17 -2 13 -5z m96 -1 c-7 -2
-21 -2 -30 0 -10 3 -4 5 12 5 17 0 24 -2 18 -5z m101 -39 c3 -8 2 -12 -4 -9
-6 3 -10 10 -10 16 0 14 7 11 14 -7z m-49 -21 c22 -3 48 -10 58 -15 12 -6 22
-4 33 7 19 19 32 12 15 -9 -9 -11 0 -18 53 -39 67 -27 125 -35 164 -23 13 4
22 3 22 -3 0 -6 25 -22 55 -36 30 -15 55 -33 55 -41 0 -22 -76 -18 -156 8 -38
12 -73 23 -79 23 -52 6 -189 61 -181 73 8 14 -8 27 -46 39 -31 9 -38 9 -38 -2
0 -8 -5 -17 -10 -20 -6 -4 -9 -1 -8 6 2 7 -6 14 -17 16 -15 3 -16 2 -7 -5 11
-8 11 -10 -1 -15 -9 -3 -14 1 -13 14 1 24 25 41 46 33 8 -3 33 -8 55 -11z
m-219 -15 c5 -7 3 -8 -6 -3 -9 6 -12 4 -8 -7 4 -8 0 -15 -7 -15 -10 0 -11 5
-4 19 11 21 15 22 25 6z m544 -23 c0 -2 -10 -10 -22 -16 -21 -11 -22 -11 -9 4
13 16 31 23 31 12z m240 -46 c0 -11 -4 -17 -10 -14 -5 3 -10 13 -10 21 0 8 5
14 10 14 6 0 10 -9 10 -21z m-33 -91 c-3 -8 -6 -5 -6 6 -1 11 2 17 5 13 3 -3
4 -12 1 -19z m-310 -118 c29 -30 53 -59 52 -65 0 -5 -11 -19 -26 -29 -23 -17
-28 -18 -52 -4 -18 11 -33 13 -49 7 -17 -6 -30 -5 -45 6 -12 8 -36 15 -53 15
-32 0 -44 13 -44 51 0 19 19 26 75 27 33 0 69 36 60 60 -8 21 14 2 82 -68z"/>
<path d="M1063 940 c-13 -5 -23 -12 -23 -16 0 -3 8 -3 18 1 9 5 35 11 57 15
l40 7 -35 1 c-19 0 -45 -3 -57 -8z"/>
<path d="M1267 913 c-8 -17 -7 -73 2 -73 5 0 9 18 8 40 -2 41 -3 46 -10 33z"/>
<path d="M664 796 c-3 -14 -10 -26 -16 -26 -5 0 -6 -4 -3 -10 12 -19 23 -10
28 23 6 40 0 49 -9 13z"/>
</g>
</svg>
